Coordinates
version=1
nRows=12
nColumns=24
inDegrees=yes

Units are S.I. units (second, meters, Newtons, ...)
Angles are in degrees.

endheader
time	pelvis_tilt	pelvis_list	pelvis_rotation	pelvis_tx	pelvis_ty	pelvis_tz	hip_flexion_r	hip_adduction_r	hip_rotation_r	knee_angle_r	ankle_angle_r	subtalar_angle_r	mtp_angle_r	hip_flexion_l	hip_adduction_l	hip_rotation_l	knee_angle_l	ankle_angle_l	subtalar_angle_l	mtp_angle_l	lumbar_extension	lumbar_bending	lumbar_rotation
      3.22500000	     -5.65398713	     -2.99268083	     -5.82434135	     -0.89505974	     -0.03401182	     -0.14547806	     -8.58381802	      8.17389851	      9.52559230	    -23.98122697	      3.50709424	     14.67127592	     18.91530903	     35.71082344	     -1.97020759	    -16.33326350	    -15.73830140	     10.29869378	     19.07029462	    -18.38986416	      5.96578900	      3.85045696	      7.44104267
      3.23000000	     -5.72105839	     -2.66268556	     -5.84321780	     -0.88760230	     -0.03446023	     -0.14592660	     -8.47389875	      7.66298565	      9.09612343	    -24.83681117	      2.79606391	     15.55266328	     19.40563219	     35.60646811	     -1.55839985	    -16.26664004	    -16.21701904	      9.62903158	     18.27145956	    -18.40759824	      6.21462809	      3.47642142	      7.38785136
      3.23500000	     -5.77153144	     -2.28142154	     -5.81427526	     -0.88011898	     -0.03481334	     -0.14650337	     -8.33738467	      7.07436570	      8.56327789	    -25.70536475	      1.91711888	     16.45514910	     20.19356493	     35.45644738	     -1.02904649	    -16.00724254	    -16.58611357	      8.73764912	     17.23240144	    -18.29014494	      6.44929100	      3.04346726	      7.27396703
      3.24000000	     -5.72845756	     -1.89253803	     -5.79462785	     -0.87270191	     -0.03494332	     -0.14704316	     -8.28794718	      6.46316104	      8.06375636	    -26.40528089	      0.34243203	     16.81868144	     22.50931673	     35.15196207	     -0.47175147	    -15.65550824	    -16.73212141	      7.20438577	     15.97824634	    -16.23309963	      6.55676936	      2.58400743	      7.18356469
      3.24500000	     -5.81517074	     -1.43392197	     -5.67768855	     -0.86521374	     -0.03521483	     -0.14774454	     -8.00057210	      5.77277905	      7.35804643	    -27.40151217	     -0.73415201	     17.83944393	     23.23652943	     35.04219663	      0.20657698	    -15.17258680	    -17.01115200	      6.01266366	     14.77843952	    -15.74163535	      6.83103003	      2.05445435	      6.97610431
      3.25000000	     -5.89305410	     -0.92077030	     -5.61926723	     -0.85778726	     -0.03536382	     -0.14837907	     -7.65976719	      5.00072117	      6.72105208	    -28.39724958	     -2.11110739	     18.75413968	     24.65989182	     34.91973833	      0.90129021	    -14.76584561	    -17.27155584	      4.74829136	     13.58851448	    -15.20360151	      7.08087195	      1.47585217	      6.84385519
      3.25500000	     -5.99125226	     -0.37745611	     -5.58774584	     -0.85039550	     -0.03545648	     -0.14895132	     -7.23389298	      4.18913135	      6.13593878	    -29.44195945	     -3.69113420	     19.62661886	     26.24592265	     34.83149919	      1.60239197	    -14.37633773	    -17.55995292	      3.52427998	     12.43886617	    -14.77905958	      7.34369797	      0.85929414	      6.73340838
      3.26000000	     -6.12105718	      0.17653899	     -5.62076899	     -0.84319944	     -0.03556478	     -0.14946335	     -6.65747354	      3.35181367	      5.62727850	    -30.66057742	     -5.23736988	     20.68041606	     27.55610156	     34.82890230	      2.25969357	    -14.07607503	    -17.95524014	      2.45158571	     11.38579879	    -14.73442712	      7.60101367	      0.25125006	      6.71973817
      3.26500000	     -6.22852741	      0.76637212	     -5.54533287	     -0.83571015	     -0.03557519	     -0.15002234	     -6.14860741	      2.47643641	      5.02920630	    -31.71781161	     -7.29087697	     21.32797786	     29.47215277	     34.74748676	      3.03482580	    -13.56700332	    -18.28244548	      1.45624749	     10.32293371	    -14.70930327	      7.89875583	     -0.43092247	      6.56529576
      3.27000000	     -6.42368367	      1.38080021	     -5.62573294	     -0.82842472	     -0.03568959	     -0.15044532	     -5.38416483	      1.56130749	      4.64311566	    -33.07654275	     -9.05452313	     22.41041997	     30.46357810	     34.80432531	      3.70988121	    -13.33744426	    -18.71114776	      0.69906462	      9.43800637	    -14.94579448	      8.25742164	     -1.08578137	      6.60832071
      3.27500000	     -6.51770598	      1.94593878	     -5.51940152	     -0.82119667	     -0.03570862	     -0.15102605	     -4.75406568	      0.69102779	      4.01641846	    -34.25609309	    -11.41173274	     22.90548247	     32.43318720	     34.75033850	      4.46821374	    -12.80243247	    -19.13620045	      0.03295452	      8.56354016	    -15.35580250	      8.47674270	     -1.74591414	      6.45457291
      3.28000000	     -6.71975054	      2.56569416	     -5.58196714	     -0.81402753	     -0.03584797	     -0.15145018	     -3.86123468	     -0.23549325	      3.67369067	    -35.74395337	    -13.40194756	     23.80586589	     33.11976636	     34.80089993	      5.15561037	    -12.55594362	    -19.55238345	     -0.44800131	      7.81286260	    -15.68478760	      8.82467431	     -2.40564372	      6.51656522
